name Trialà11.sto
datacolumns 19
datarows 22
range 2.36800000 2.45200000
endheader

                time	     ground_force_vx	     ground_force_vy	     ground_force_vz	     ground_force_px	     ground_force_py	     ground_force_pz	     ground_force_vx	     ground_force_vy	     ground_force_vz	     ground_force_px	     ground_force_py	     ground_force_pz	     ground_torque_x	     ground_torque_y	     ground_torque_z	     ground_torque_x	     ground_torque_y	     ground_torque_z	
          2.36800000	          9.76016466	        329.64869516	        -25.58408379	          0.94405797	          0.00000000	          0.30382782	         58.26161496	        168.57852340	         10.30112074	          2.02105934	          0.00000000	          0.21834098	       -100.17008025	         26.65771930	        311.24322193	        -33.70133600	          0.88962057	        341.25641236	
          2.37200000	         15.21696184	        340.78018485	        -24.56941122	          0.94234957	          0.00000000	          0.30224745	         65.45688313	        157.83783737	         10.38030764	          2.00700866	          0.00000000	          0.21948903	       -103.03796144	         26.90085427	        321.19544542	        -31.44625241	          1.24372135	        317.28896080	
          2.37600000	         21.13145745	        353.03857620	        -23.34497731	          0.94064352	          0.00000000	          0.30049561	         71.71643170	        148.98590635	         10.47151053	          1.99248728	          0.00000000	          0.21975966	       -106.16329373	         27.02695347	        332.16824013	        -29.56737473	          1.48920421	        297.31592571	
          2.38000000	         27.50659231	        366.43633825	        -21.94035286	          0.93895352	          0.00000000	          0.29861524	         77.06415456	        141.91639245	         10.56960179	          1.97785731	          0.00000000	          0.21922495	       -109.55464251	         27.06746638	        344.17131339	        -28.04379042	          1.63872802	        281.11113605	
          2.38400000	         34.34108554	        380.97430132	        -20.38894147	          0.93729095	          0.00000000	          0.29665058	         81.53087783	        136.50103395	         10.66895365	          1.96351981	          0.00000000	          0.21804574	       -113.21823278	         27.05689726	        357.20368518	        -26.85035529	          1.70596546	        268.40368837	
          2.38800000	         41.62918596	        396.64140048	        -18.72739417	          0.93566471	          0.00000000	          0.29464521	         85.15337252	        132.59310281	         10.76362482	          1.94986835	          0.00000000	          0.21642496	       -117.15777117	         27.03213485	        371.25349968	        -25.95835804	          1.70518411	        258.88519814	
          2.39200000	         49.36048609	        413.41458788	        -16.99494815	          0.93408129	          0.00000000	          0.29264025	         87.97340500	        130.03120918	         10.84756069	          1.93723971	          0.00000000	          0.21456328	       -121.37430125	         27.03171746	        386.29798924	        -25.33625255	          1.65083060	        252.21773517	
          2.39600000	         57.51980558	        431.25891488	        -15.23269889	          0.93254495	          0.00000000	          0.29067299	         90.03683958	        128.64332665	         10.91479916	          1.92587441	          0.00000000	          0.21262913	       -125.86609503	         27.09504481	        402.30359070	        -24.95043361	          1.55712986	        248.04218299	
          2.40000000	         66.08714880	        450.12778165	        -13.48281663	          0.93105813	          0.00000000	          0.28877597	         91.39279824	        128.25090317	         10.95967357	          1.91589648	          0.00000000	          0.21074572	       -130.62858185	         27.26154924	        419.22621057	        -24.76602969	          1.43771094	        245.98674579	
          2.40400000	         75.03773942	        469.96334801	        -11.78771968	          0.92962179	          0.00000000	          0.28697638	         92.09287523	        128.67292128	         10.97700415	          1.90731504	          0.00000000	          0.20899087	       -135.65431586	         27.56984055	        437.01163269	        -24.74768648	          1.30526985	        245.67532528	
          2.40800000	         84.34213241	        490.69709549	        -10.18921957	          0.92823579	          0.00000000	          0.28529592	         92.19039951	        129.72977802	         10.96226937	          1.90004329	          0.00000000	          0.20740423	       -140.93298151	         28.05683991	        455.59605848	        -24.86031587	          1.17127836	        246.73550491	
          2.41200000	         93.96640201	        512.25052664	         -8.72765440	          0.92689922	          0.00000000	          0.28375096	         91.73973664	        131.24686875	         10.91175010	          1.89392695	          0.00000000	          0.20599730	       -146.45143627	         28.75692024	        474.90676691	        -25.06978830	          1.04574602	        248.80590813	
          2.41600000	        103.87240156	        534.53598405	         -7.44102936	          0.92561062	          0.00000000	          0.28235285	         90.79562239	        133.05777927	         10.82264064	          1.88877383	          0.00000000	          0.20476305	       -152.19378839	         29.70107130	        494.86287847	        -25.34354982	          0.93704079	        251.54273852	
          2.42000000	        114.01808932	        557.45756851	         -6.36418395	          0.92436826	          0.00000000	          0.28110850	         89.41252404	        135.00701501	         10.69312292	          1.88437910	          0.00000000	          0.20368395	       -158.14150705	         30.91610878	        515.37620475	        -25.65115041	          0.85177071	        254.62535945	
          2.42400000	        124.35791253	        580.91213374	         -5.52800710	          0.92317020	          0.00000000	          0.28002092	         87.64402941	        136.95222253	         10.52240217	          1.88054365	          0.00000000	          0.20273784	       -164.27356183	         32.42394704	        536.35216398	        -25.96467474	          0.79472731	        257.76082397	
          2.42800000	        134.84324043	        604.79033364	         -4.95872098	          0.92201447	          0.00000000	          0.27908986	         85.54226862	        138.76588509	         10.31070484	          1.87708542	          0.00000000	          0.20190179	       -170.56658822	         34.24095488	        557.69074096	        -26.25907203	          0.76888879	        260.68731887	
          2.43200000	        145.42283599	        628.97769770	         -4.67725435	          0.92089908	          0.00000000	          0.27831240	         83.15737787	        140.33649833	         10.05924083	          1.87384501	          0.00000000	          0.20115437	       -176.99507548	         36.37741323	        579.28746974	        -26.51238585	          0.77547908	        263.17653558	
          2.43600000	        156.04335532	        653.35570957	         -4.69872517	          0.91982210	          0.00000000	          0.27768353	         80.53701717	        141.56925316	          9.77013438	          1.87068705	         -0.00000000	          0.20047675	       -183.53157325	         38.83709253	        601.03441670	        -26.70588928	          0.81407753	        265.03502232	
          2.44000000	        166.64986364	        677.80286494	         -5.03205033	          0.91878165	          0.00000000	          0.27719659	         77.72595539	        142.38626935	          9.44632832	          1.86749916	         -0.00000000	          0.19985302	       -190.14691286	         41.61696533	        622.82114235	        -26.82413349	          0.88277253	        266.10460439	
          2.44400000	        177.18635653	        702.19568628	         -5.67969797	          0.91777594	          0.00000000	          0.27684378	         74.76573549	        142.72643425	          9.09146783	          1.86418938	          0.00000000	          0.19927006	       -196.81043933	         44.70706735	        644.53562175	        -26.85492020	          0.97835143	        266.26198225	
          2.44800000	        187.59627654	        726.40967560	         -6.63759422	          0.91680326	          0.00000000	          0.27661650	         71.69443097	        142.54490768	          8.70976970	          1.86068323	          0.00000000	          0.19871716	       -203.49025058	         48.09051664	        666.06510564	        -26.78920973	          1.09651861	        265.41762976	
          2.45200000	        197.82301625	        750.32019044	         -7.89519211	          0.91586196	          0.00000000	          0.27650566	         68.54650128	        141.81235582	          8.30588324	          1.85692055	          0.00000000	          0.19818561	       -210.15344042	         51.74369652	        687.29690880	        -26.62097642	          1.23213295	        263.51411941	
